<mxfile host="app.diagrams.net" agent="Mozilla/5.0 (Windows NT 10.0; Win64; x64) AppleWebKit/537.36 (KHTML, like Gecko) Chrome/132.0.0.0 Safari/537.36" version="27.1.1">
  <diagram id="C5RBs43oDa-KdzZeNtuy" name="Page-1">
    <mxGraphModel dx="3488" dy="1860" grid="1" gridSize="10" guides="1" tooltips="1" connect="1" arrows="1" fold="1" page="1" pageScale="1" pageWidth="827" pageHeight="1169" math="0" shadow="0">
      <root>
        <mxCell id="WIyWlLk6GJQsqaUBKTNV-0" />
        <mxCell id="WIyWlLk6GJQsqaUBKTNV-1" parent="WIyWlLk6GJQsqaUBKTNV-0" />
        <mxCell id="1SzBsBPXZqBtcYk88lzq-5" style="edgeStyle=orthogonalEdgeStyle;rounded=0;orthogonalLoop=1;jettySize=auto;html=1;exitX=1;exitY=0.5;exitDx=0;exitDy=0;entryX=0;entryY=0.5;entryDx=0;entryDy=0;" parent="WIyWlLk6GJQsqaUBKTNV-1" source="1SzBsBPXZqBtcYk88lzq-0" target="1SzBsBPXZqBtcYk88lzq-4" edge="1">
          <mxGeometry relative="1" as="geometry" />
        </mxCell>
        <mxCell id="1SzBsBPXZqBtcYk88lzq-0" value="" style="ellipse;html=1;shape=endState;fillColor=#000000;strokeColor=#FFFF00;" parent="WIyWlLk6GJQsqaUBKTNV-1" vertex="1">
          <mxGeometry x="185" y="302" width="30" height="30" as="geometry" />
        </mxCell>
        <mxCell id="1SzBsBPXZqBtcYk88lzq-4" value="Iniciar" style="rounded=1;whiteSpace=wrap;html=1;" parent="WIyWlLk6GJQsqaUBKTNV-1" vertex="1">
          <mxGeometry x="265" y="298.25" width="100" height="37.5" as="geometry" />
        </mxCell>
        <mxCell id="1SzBsBPXZqBtcYk88lzq-33" style="edgeStyle=orthogonalEdgeStyle;rounded=0;orthogonalLoop=1;jettySize=auto;html=1;entryX=0;entryY=0.5;entryDx=0;entryDy=0;" parent="WIyWlLk6GJQsqaUBKTNV-1" source="1SzBsBPXZqBtcYk88lzq-4" target="1SzBsBPXZqBtcYk88lzq-38" edge="1">
          <mxGeometry relative="1" as="geometry">
            <mxPoint x="605.0000000000002" y="228.7500000000001" as="targetPoint" />
            <mxPoint x="475" y="275" as="sourcePoint" />
          </mxGeometry>
        </mxCell>
        <mxCell id="1SzBsBPXZqBtcYk88lzq-40" style="edgeStyle=orthogonalEdgeStyle;rounded=0;orthogonalLoop=1;jettySize=auto;html=1;exitX=0.5;exitY=1;exitDx=0;exitDy=0;entryX=0;entryY=0.5;entryDx=0;entryDy=0;" parent="WIyWlLk6GJQsqaUBKTNV-1" source="1SzBsBPXZqBtcYk88lzq-38" target="1SzBsBPXZqBtcYk88lzq-39" edge="1">
          <mxGeometry relative="1" as="geometry" />
        </mxCell>
        <mxCell id="1SzBsBPXZqBtcYk88lzq-46" value="Sim" style="edgeLabel;html=1;align=center;verticalAlign=middle;resizable=0;points=[];" parent="1SzBsBPXZqBtcYk88lzq-40" connectable="0" vertex="1">
          <mxGeometry x="-0.2259" y="-1" relative="1" as="geometry">
            <mxPoint x="-12" y="-1" as="offset" />
          </mxGeometry>
        </mxCell>
        <mxCell id="1SzBsBPXZqBtcYk88lzq-43" style="edgeStyle=orthogonalEdgeStyle;rounded=0;orthogonalLoop=1;jettySize=auto;html=1;exitX=0.5;exitY=0;exitDx=0;exitDy=0;entryX=0;entryY=0.5;entryDx=0;entryDy=0;" parent="WIyWlLk6GJQsqaUBKTNV-1" source="1SzBsBPXZqBtcYk88lzq-38" target="1SzBsBPXZqBtcYk88lzq-42" edge="1">
          <mxGeometry relative="1" as="geometry" />
        </mxCell>
        <mxCell id="1SzBsBPXZqBtcYk88lzq-44" value="Não" style="edgeLabel;html=1;align=center;verticalAlign=middle;resizable=0;points=[];" parent="1SzBsBPXZqBtcYk88lzq-43" connectable="0" vertex="1">
          <mxGeometry x="0.3711" relative="1" as="geometry">
            <mxPoint x="-65" y="66" as="offset" />
          </mxGeometry>
        </mxCell>
        <mxCell id="Lc4B7oKeqXN2q5uEeSAr-0" value="Não" style="edgeLabel;html=1;align=center;verticalAlign=middle;resizable=0;points=[];" vertex="1" connectable="0" parent="1SzBsBPXZqBtcYk88lzq-43">
          <mxGeometry x="-0.4022" y="1" relative="1" as="geometry">
            <mxPoint as="offset" />
          </mxGeometry>
        </mxCell>
        <mxCell id="1SzBsBPXZqBtcYk88lzq-38" value="É cadastrado?" style="rhombus;whiteSpace=wrap;html=1;" parent="WIyWlLk6GJQsqaUBKTNV-1" vertex="1">
          <mxGeometry x="450" y="276.49" width="120" height="80" as="geometry" />
        </mxCell>
        <mxCell id="RYv_guV0oGGCcxDcEiJ_-85" style="edgeStyle=orthogonalEdgeStyle;rounded=0;orthogonalLoop=1;jettySize=auto;html=1;exitX=1;exitY=0.5;exitDx=0;exitDy=0;entryX=0;entryY=0.5;entryDx=0;entryDy=0;" parent="WIyWlLk6GJQsqaUBKTNV-1" source="1SzBsBPXZqBtcYk88lzq-39" target="RYv_guV0oGGCcxDcEiJ_-84" edge="1">
          <mxGeometry relative="1" as="geometry">
            <Array as="points">
              <mxPoint x="771" y="387" />
              <mxPoint x="771" y="318" />
            </Array>
          </mxGeometry>
        </mxCell>
        <mxCell id="1SzBsBPXZqBtcYk88lzq-39" value="Logar-se" style="rounded=1;whiteSpace=wrap;html=1;" parent="WIyWlLk6GJQsqaUBKTNV-1" vertex="1">
          <mxGeometry x="640" y="368.12" width="100" height="37.5" as="geometry" />
        </mxCell>
        <mxCell id="1SzBsBPXZqBtcYk88lzq-45" style="edgeStyle=orthogonalEdgeStyle;rounded=0;orthogonalLoop=1;jettySize=auto;html=1;exitX=0.5;exitY=1;exitDx=0;exitDy=0;entryX=0.5;entryY=0;entryDx=0;entryDy=0;" parent="WIyWlLk6GJQsqaUBKTNV-1" source="1SzBsBPXZqBtcYk88lzq-42" target="1SzBsBPXZqBtcYk88lzq-39" edge="1">
          <mxGeometry relative="1" as="geometry" />
        </mxCell>
        <mxCell id="1SzBsBPXZqBtcYk88lzq-42" value="Cadastrar-se" style="rounded=1;whiteSpace=wrap;html=1;" parent="WIyWlLk6GJQsqaUBKTNV-1" vertex="1">
          <mxGeometry x="640" y="237.87" width="100" height="37.5" as="geometry" />
        </mxCell>
        <mxCell id="XJXXXrBX6UF0R7sf1k8g-0" style="edgeStyle=orthogonalEdgeStyle;rounded=0;orthogonalLoop=1;jettySize=auto;html=1;exitX=1;exitY=0.5;exitDx=0;exitDy=0;entryX=0;entryY=0.5;entryDx=0;entryDy=0;" parent="WIyWlLk6GJQsqaUBKTNV-1" source="XJXXXrBX6UF0R7sf1k8g-1" target="XJXXXrBX6UF0R7sf1k8g-3" edge="1">
          <mxGeometry relative="1" as="geometry" />
        </mxCell>
        <mxCell id="XJXXXrBX6UF0R7sf1k8g-1" value="" style="ellipse;html=1;shape=endState;fillColor=#000000;strokeColor=#00FFFF;" parent="WIyWlLk6GJQsqaUBKTNV-1" vertex="1">
          <mxGeometry x="185" y="1015" width="30" height="30" as="geometry" />
        </mxCell>
        <mxCell id="XJXXXrBX6UF0R7sf1k8g-2" style="edgeStyle=orthogonalEdgeStyle;rounded=0;orthogonalLoop=1;jettySize=auto;html=1;exitX=1;exitY=0.5;exitDx=0;exitDy=0;entryX=0;entryY=0.5;entryDx=0;entryDy=0;" parent="WIyWlLk6GJQsqaUBKTNV-1" source="XJXXXrBX6UF0R7sf1k8g-3" target="XJXXXrBX6UF0R7sf1k8g-10" edge="1">
          <mxGeometry relative="1" as="geometry">
            <mxPoint x="414" y="1030" as="targetPoint" />
          </mxGeometry>
        </mxCell>
        <mxCell id="XJXXXrBX6UF0R7sf1k8g-3" value="Iniciar Adm" style="rounded=1;whiteSpace=wrap;html=1;" parent="WIyWlLk6GJQsqaUBKTNV-1" vertex="1">
          <mxGeometry x="265" y="1011.25" width="100" height="37.5" as="geometry" />
        </mxCell>
        <mxCell id="dobvGp4MOFqiP2ddSErw-3" value="" style="edgeStyle=orthogonalEdgeStyle;rounded=0;orthogonalLoop=1;jettySize=auto;html=1;" parent="WIyWlLk6GJQsqaUBKTNV-1" source="XJXXXrBX6UF0R7sf1k8g-10" target="dobvGp4MOFqiP2ddSErw-2" edge="1">
          <mxGeometry relative="1" as="geometry" />
        </mxCell>
        <mxCell id="XJXXXrBX6UF0R7sf1k8g-10" value="Logar-se" style="rounded=1;whiteSpace=wrap;html=1;" parent="WIyWlLk6GJQsqaUBKTNV-1" vertex="1">
          <mxGeometry x="430" y="1011.5" width="100" height="37.5" as="geometry" />
        </mxCell>
        <mxCell id="qe04x3mOyRm4tF5T4k0E-8" style="edgeStyle=orthogonalEdgeStyle;rounded=0;orthogonalLoop=1;jettySize=auto;html=1;exitX=0.5;exitY=1;exitDx=0;exitDy=0;entryX=1;entryY=0.5;entryDx=0;entryDy=0;" parent="WIyWlLk6GJQsqaUBKTNV-1" source="dobvGp4MOFqiP2ddSErw-2" target="qe04x3mOyRm4tF5T4k0E-2" edge="1">
          <mxGeometry relative="1" as="geometry" />
        </mxCell>
        <mxCell id="qe04x3mOyRm4tF5T4k0E-9" style="edgeStyle=orthogonalEdgeStyle;rounded=0;orthogonalLoop=1;jettySize=auto;html=1;exitX=0.5;exitY=1;exitDx=0;exitDy=0;entryX=0;entryY=0.5;entryDx=0;entryDy=0;" parent="WIyWlLk6GJQsqaUBKTNV-1" source="dobvGp4MOFqiP2ddSErw-2" target="7GlUSVLypJ4G9-vJ-Vu1-31" edge="1">
          <mxGeometry relative="1" as="geometry">
            <mxPoint x="945" y="1303.5" as="targetPoint" />
          </mxGeometry>
        </mxCell>
        <mxCell id="qe04x3mOyRm4tF5T4k0E-10" style="edgeStyle=orthogonalEdgeStyle;rounded=0;orthogonalLoop=1;jettySize=auto;html=1;exitX=0.5;exitY=1;exitDx=0;exitDy=0;entryX=1;entryY=0.5;entryDx=0;entryDy=0;" parent="WIyWlLk6GJQsqaUBKTNV-1" source="dobvGp4MOFqiP2ddSErw-2" target="qe04x3mOyRm4tF5T4k0E-4" edge="1">
          <mxGeometry relative="1" as="geometry" />
        </mxCell>
        <mxCell id="qe04x3mOyRm4tF5T4k0E-11" style="edgeStyle=orthogonalEdgeStyle;rounded=0;orthogonalLoop=1;jettySize=auto;html=1;exitX=0.5;exitY=1;exitDx=0;exitDy=0;entryX=0;entryY=0.5;entryDx=0;entryDy=0;" parent="WIyWlLk6GJQsqaUBKTNV-1" source="dobvGp4MOFqiP2ddSErw-2" target="qe04x3mOyRm4tF5T4k0E-5" edge="1">
          <mxGeometry relative="1" as="geometry" />
        </mxCell>
        <mxCell id="dobvGp4MOFqiP2ddSErw-2" value="Tela principal" style="whiteSpace=wrap;html=1;rounded=1;" parent="WIyWlLk6GJQsqaUBKTNV-1" vertex="1">
          <mxGeometry x="610" y="1000" width="120" height="60" as="geometry" />
        </mxCell>
        <mxCell id="RYv_guV0oGGCcxDcEiJ_-9" style="edgeStyle=orthogonalEdgeStyle;rounded=0;orthogonalLoop=1;jettySize=auto;html=1;exitX=1;exitY=0.5;exitDx=0;exitDy=0;entryX=0;entryY=0.5;entryDx=0;entryDy=0;" parent="WIyWlLk6GJQsqaUBKTNV-1" source="7GlUSVLypJ4G9-vJ-Vu1-7" target="RYv_guV0oGGCcxDcEiJ_-8" edge="1">
          <mxGeometry relative="1" as="geometry">
            <mxPoint x="1081" y="317" as="sourcePoint" />
            <Array as="points">
              <mxPoint x="1101" y="318" />
              <mxPoint x="1121" y="317" />
            </Array>
          </mxGeometry>
        </mxCell>
        <mxCell id="Lc4B7oKeqXN2q5uEeSAr-8" style="edgeStyle=orthogonalEdgeStyle;rounded=0;orthogonalLoop=1;jettySize=auto;html=1;exitX=0.5;exitY=1;exitDx=0;exitDy=0;entryX=0.5;entryY=0;entryDx=0;entryDy=0;" edge="1" parent="WIyWlLk6GJQsqaUBKTNV-1" source="RYv_guV0oGGCcxDcEiJ_-8" target="RYv_guV0oGGCcxDcEiJ_-13">
          <mxGeometry relative="1" as="geometry" />
        </mxCell>
        <mxCell id="Lc4B7oKeqXN2q5uEeSAr-14" style="edgeStyle=orthogonalEdgeStyle;rounded=0;orthogonalLoop=1;jettySize=auto;html=1;exitX=1;exitY=0.5;exitDx=0;exitDy=0;entryX=0.5;entryY=0;entryDx=0;entryDy=0;" edge="1" parent="WIyWlLk6GJQsqaUBKTNV-1" source="RYv_guV0oGGCcxDcEiJ_-8" target="Lc4B7oKeqXN2q5uEeSAr-12">
          <mxGeometry relative="1" as="geometry" />
        </mxCell>
        <mxCell id="RYv_guV0oGGCcxDcEiJ_-8" value="Disponibiliza informações do jogo escolhido e suas avaliações" style="rounded=1;whiteSpace=wrap;html=1;" parent="WIyWlLk6GJQsqaUBKTNV-1" vertex="1">
          <mxGeometry x="1111" y="286" width="120" height="62.75" as="geometry" />
        </mxCell>
        <mxCell id="7GlUSVLypJ4G9-vJ-Vu1-14" style="edgeStyle=orthogonalEdgeStyle;rounded=0;orthogonalLoop=1;jettySize=auto;html=1;exitX=0;exitY=0.5;exitDx=0;exitDy=0;entryX=0.5;entryY=1;entryDx=0;entryDy=0;" parent="WIyWlLk6GJQsqaUBKTNV-1" source="RYv_guV0oGGCcxDcEiJ_-13" target="RYv_guV0oGGCcxDcEiJ_-84" edge="1">
          <mxGeometry relative="1" as="geometry" />
        </mxCell>
        <mxCell id="7GlUSVLypJ4G9-vJ-Vu1-15" value="Não" style="edgeLabel;html=1;align=center;verticalAlign=middle;resizable=0;points=[];" parent="7GlUSVLypJ4G9-vJ-Vu1-14" connectable="0" vertex="1">
          <mxGeometry x="-0.79" relative="1" as="geometry">
            <mxPoint x="1" as="offset" />
          </mxGeometry>
        </mxCell>
        <mxCell id="Lc4B7oKeqXN2q5uEeSAr-9" style="edgeStyle=orthogonalEdgeStyle;rounded=0;orthogonalLoop=1;jettySize=auto;html=1;exitX=1;exitY=0.5;exitDx=0;exitDy=0;" edge="1" parent="WIyWlLk6GJQsqaUBKTNV-1" source="RYv_guV0oGGCcxDcEiJ_-13" target="7GlUSVLypJ4G9-vJ-Vu1-1">
          <mxGeometry relative="1" as="geometry" />
        </mxCell>
        <mxCell id="Lc4B7oKeqXN2q5uEeSAr-10" value="Sim" style="edgeLabel;html=1;align=center;verticalAlign=middle;resizable=0;points=[];" vertex="1" connectable="0" parent="Lc4B7oKeqXN2q5uEeSAr-9">
          <mxGeometry x="-0.8871" y="-1" relative="1" as="geometry">
            <mxPoint x="-1" as="offset" />
          </mxGeometry>
        </mxCell>
        <mxCell id="RYv_guV0oGGCcxDcEiJ_-13" value="Adicionar ao carrinho?" style="rhombus;whiteSpace=wrap;html=1;" parent="WIyWlLk6GJQsqaUBKTNV-1" vertex="1">
          <mxGeometry x="971" y="469.86" width="140" height="80" as="geometry" />
        </mxCell>
        <mxCell id="RYv_guV0oGGCcxDcEiJ_-27" style="edgeStyle=orthogonalEdgeStyle;rounded=0;orthogonalLoop=1;jettySize=auto;html=1;exitX=1;exitY=0.515;exitDx=0;exitDy=0;entryX=0;entryY=0.5;entryDx=0;entryDy=0;exitPerimeter=0;" parent="WIyWlLk6GJQsqaUBKTNV-1" source="7GlUSVLypJ4G9-vJ-Vu1-9" target="RYv_guV0oGGCcxDcEiJ_-26" edge="1">
          <mxGeometry relative="1" as="geometry">
            <mxPoint x="1821" y="198" as="sourcePoint" />
          </mxGeometry>
        </mxCell>
        <mxCell id="RYv_guV0oGGCcxDcEiJ_-31" style="edgeStyle=orthogonalEdgeStyle;rounded=0;orthogonalLoop=1;jettySize=auto;html=1;exitX=1;exitY=0.5;exitDx=0;exitDy=0;entryX=0;entryY=0.5;entryDx=0;entryDy=0;" parent="WIyWlLk6GJQsqaUBKTNV-1" source="RYv_guV0oGGCcxDcEiJ_-26" target="RYv_guV0oGGCcxDcEiJ_-30" edge="1">
          <mxGeometry relative="1" as="geometry">
            <mxPoint x="2085" y="318.24499999999966" as="sourcePoint" />
          </mxGeometry>
        </mxCell>
        <mxCell id="RYv_guV0oGGCcxDcEiJ_-32" value="PIX" style="edgeLabel;html=1;align=center;verticalAlign=middle;resizable=0;points=[];" parent="RYv_guV0oGGCcxDcEiJ_-31" connectable="0" vertex="1">
          <mxGeometry x="-0.1714" y="1" relative="1" as="geometry">
            <mxPoint y="11" as="offset" />
          </mxGeometry>
        </mxCell>
        <mxCell id="RYv_guV0oGGCcxDcEiJ_-40" style="edgeStyle=orthogonalEdgeStyle;rounded=0;orthogonalLoop=1;jettySize=auto;html=1;exitX=1;exitY=0.5;exitDx=0;exitDy=0;entryX=0;entryY=0.5;entryDx=0;entryDy=0;" parent="WIyWlLk6GJQsqaUBKTNV-1" source="RYv_guV0oGGCcxDcEiJ_-26" target="RYv_guV0oGGCcxDcEiJ_-64" edge="1">
          <mxGeometry relative="1" as="geometry">
            <mxPoint x="2175" y="392.74" as="targetPoint" />
            <mxPoint x="2085" y="318.24499999999966" as="sourcePoint" />
          </mxGeometry>
        </mxCell>
        <mxCell id="RYv_guV0oGGCcxDcEiJ_-41" value="Cartão" style="edgeLabel;html=1;align=center;verticalAlign=middle;resizable=0;points=[];" parent="RYv_guV0oGGCcxDcEiJ_-40" connectable="0" vertex="1">
          <mxGeometry x="-0.0068" relative="1" as="geometry">
            <mxPoint y="-22" as="offset" />
          </mxGeometry>
        </mxCell>
        <mxCell id="RYv_guV0oGGCcxDcEiJ_-26" value="Método de pagamento: Cartão ou PIX?" style="rhombus;whiteSpace=wrap;html=1;" parent="WIyWlLk6GJQsqaUBKTNV-1" vertex="1">
          <mxGeometry x="1904" y="246.56" width="207" height="142.38" as="geometry" />
        </mxCell>
        <mxCell id="RYv_guV0oGGCcxDcEiJ_-45" style="edgeStyle=orthogonalEdgeStyle;rounded=0;orthogonalLoop=1;jettySize=auto;html=1;exitX=1;exitY=0.5;exitDx=0;exitDy=0;" parent="WIyWlLk6GJQsqaUBKTNV-1" source="RYv_guV0oGGCcxDcEiJ_-30" target="RYv_guV0oGGCcxDcEiJ_-44" edge="1">
          <mxGeometry relative="1" as="geometry" />
        </mxCell>
        <mxCell id="RYv_guV0oGGCcxDcEiJ_-46" value="Pagamento&lt;div&gt;realizado&lt;/div&gt;" style="edgeLabel;html=1;align=center;verticalAlign=middle;resizable=0;points=[];" parent="RYv_guV0oGGCcxDcEiJ_-45" connectable="0" vertex="1">
          <mxGeometry x="-0.1565" y="-1" relative="1" as="geometry">
            <mxPoint x="6" as="offset" />
          </mxGeometry>
        </mxCell>
        <mxCell id="RYv_guV0oGGCcxDcEiJ_-30" value="Disponibilizar chave PIX" style="rounded=1;whiteSpace=wrap;html=1;" parent="WIyWlLk6GJQsqaUBKTNV-1" vertex="1">
          <mxGeometry x="2175" y="226.62" width="120" height="50" as="geometry" />
        </mxCell>
        <mxCell id="7GlUSVLypJ4G9-vJ-Vu1-17" style="edgeStyle=orthogonalEdgeStyle;rounded=0;orthogonalLoop=1;jettySize=auto;html=1;exitX=1;exitY=0.5;exitDx=0;exitDy=0;entryX=0;entryY=0.5;entryDx=0;entryDy=0;" parent="WIyWlLk6GJQsqaUBKTNV-1" source="RYv_guV0oGGCcxDcEiJ_-44" target="RYv_guV0oGGCcxDcEiJ_-53" edge="1">
          <mxGeometry relative="1" as="geometry">
            <Array as="points">
              <mxPoint x="2592" y="233" />
              <mxPoint x="2592" y="318" />
            </Array>
          </mxGeometry>
        </mxCell>
        <mxCell id="RYv_guV0oGGCcxDcEiJ_-44" value="Disponibilizar arquivo de instalação do jogo" style="rounded=1;whiteSpace=wrap;html=1;" parent="WIyWlLk6GJQsqaUBKTNV-1" vertex="1">
          <mxGeometry x="2443" y="226.49" width="120" height="50" as="geometry" />
        </mxCell>
        <mxCell id="RYv_guV0oGGCcxDcEiJ_-55" style="edgeStyle=orthogonalEdgeStyle;rounded=0;orthogonalLoop=1;jettySize=auto;html=1;exitX=1;exitY=0.5;exitDx=0;exitDy=0;" parent="WIyWlLk6GJQsqaUBKTNV-1" source="RYv_guV0oGGCcxDcEiJ_-53" target="RYv_guV0oGGCcxDcEiJ_-54" edge="1">
          <mxGeometry relative="1" as="geometry" />
        </mxCell>
        <mxCell id="RYv_guV0oGGCcxDcEiJ_-57" value="Não" style="edgeLabel;html=1;align=center;verticalAlign=middle;resizable=0;points=[];" parent="RYv_guV0oGGCcxDcEiJ_-55" connectable="0" vertex="1">
          <mxGeometry x="-0.0691" y="1" relative="1" as="geometry">
            <mxPoint x="-22" as="offset" />
          </mxGeometry>
        </mxCell>
        <mxCell id="7GlUSVLypJ4G9-vJ-Vu1-23" style="edgeStyle=orthogonalEdgeStyle;rounded=0;orthogonalLoop=1;jettySize=auto;html=1;exitX=0.5;exitY=1;exitDx=0;exitDy=0;entryX=0;entryY=0.5;entryDx=0;entryDy=0;" parent="WIyWlLk6GJQsqaUBKTNV-1" source="RYv_guV0oGGCcxDcEiJ_-53" target="RYv_guV0oGGCcxDcEiJ_-56" edge="1">
          <mxGeometry relative="1" as="geometry" />
        </mxCell>
        <mxCell id="7GlUSVLypJ4G9-vJ-Vu1-24" value="Sim" style="edgeLabel;html=1;align=center;verticalAlign=middle;resizable=0;points=[];" parent="7GlUSVLypJ4G9-vJ-Vu1-23" connectable="0" vertex="1">
          <mxGeometry x="-0.921" relative="1" as="geometry">
            <mxPoint as="offset" />
          </mxGeometry>
        </mxCell>
        <mxCell id="RYv_guV0oGGCcxDcEiJ_-53" value="Avaliar o site?" style="rhombus;whiteSpace=wrap;html=1;" parent="WIyWlLk6GJQsqaUBKTNV-1" vertex="1">
          <mxGeometry x="2642" y="257.62" width="170" height="121.25" as="geometry" />
        </mxCell>
        <mxCell id="RYv_guV0oGGCcxDcEiJ_-54" value="Fim da operação" style="rounded=1;whiteSpace=wrap;html=1;" parent="WIyWlLk6GJQsqaUBKTNV-1" vertex="1">
          <mxGeometry x="2892" y="293.25" width="120" height="50" as="geometry" />
        </mxCell>
        <mxCell id="RYv_guV0oGGCcxDcEiJ_-60" style="edgeStyle=orthogonalEdgeStyle;rounded=0;orthogonalLoop=1;jettySize=auto;html=1;exitX=0.5;exitY=0;exitDx=0;exitDy=0;entryX=0.5;entryY=1;entryDx=0;entryDy=0;" parent="WIyWlLk6GJQsqaUBKTNV-1" source="RYv_guV0oGGCcxDcEiJ_-56" target="RYv_guV0oGGCcxDcEiJ_-54" edge="1">
          <mxGeometry relative="1" as="geometry" />
        </mxCell>
        <mxCell id="RYv_guV0oGGCcxDcEiJ_-56" value="Exibir campos de feedback" style="rounded=1;whiteSpace=wrap;html=1;" parent="WIyWlLk6GJQsqaUBKTNV-1" vertex="1">
          <mxGeometry x="2892" y="419.86" width="120" height="50" as="geometry" />
        </mxCell>
        <mxCell id="RYv_guV0oGGCcxDcEiJ_-66" style="edgeStyle=orthogonalEdgeStyle;rounded=0;orthogonalLoop=1;jettySize=auto;html=1;exitX=1;exitY=0.5;exitDx=0;exitDy=0;entryX=0;entryY=0.5;entryDx=0;entryDy=0;" parent="WIyWlLk6GJQsqaUBKTNV-1" source="RYv_guV0oGGCcxDcEiJ_-64" target="RYv_guV0oGGCcxDcEiJ_-65" edge="1">
          <mxGeometry relative="1" as="geometry" />
        </mxCell>
        <mxCell id="RYv_guV0oGGCcxDcEiJ_-67" value="Sim" style="edgeLabel;html=1;align=center;verticalAlign=middle;resizable=0;points=[];" parent="RYv_guV0oGGCcxDcEiJ_-66" connectable="0" vertex="1">
          <mxGeometry x="-0.1476" y="-1" relative="1" as="geometry">
            <mxPoint x="-26" y="-1" as="offset" />
          </mxGeometry>
        </mxCell>
        <mxCell id="RYv_guV0oGGCcxDcEiJ_-70" style="edgeStyle=orthogonalEdgeStyle;rounded=0;orthogonalLoop=1;jettySize=auto;html=1;exitX=0.5;exitY=1;exitDx=0;exitDy=0;entryX=0;entryY=0.5;entryDx=0;entryDy=0;" parent="WIyWlLk6GJQsqaUBKTNV-1" source="RYv_guV0oGGCcxDcEiJ_-64" target="RYv_guV0oGGCcxDcEiJ_-69" edge="1">
          <mxGeometry relative="1" as="geometry" />
        </mxCell>
        <mxCell id="RYv_guV0oGGCcxDcEiJ_-71" value="Não" style="edgeLabel;html=1;align=center;verticalAlign=middle;resizable=0;points=[];" parent="RYv_guV0oGGCcxDcEiJ_-70" connectable="0" vertex="1">
          <mxGeometry x="-0.7554" relative="1" as="geometry">
            <mxPoint as="offset" />
          </mxGeometry>
        </mxCell>
        <mxCell id="RYv_guV0oGGCcxDcEiJ_-64" value="Há um cartão cadastrado?" style="rhombus;whiteSpace=wrap;html=1;" parent="WIyWlLk6GJQsqaUBKTNV-1" vertex="1">
          <mxGeometry x="2175" y="330.24" width="170" height="121.25" as="geometry" />
        </mxCell>
        <mxCell id="RYv_guV0oGGCcxDcEiJ_-68" style="edgeStyle=orthogonalEdgeStyle;rounded=0;orthogonalLoop=1;jettySize=auto;html=1;exitX=0.5;exitY=0;exitDx=0;exitDy=0;entryX=0.5;entryY=1;entryDx=0;entryDy=0;" parent="WIyWlLk6GJQsqaUBKTNV-1" source="RYv_guV0oGGCcxDcEiJ_-65" target="RYv_guV0oGGCcxDcEiJ_-44" edge="1">
          <mxGeometry relative="1" as="geometry" />
        </mxCell>
        <mxCell id="RYv_guV0oGGCcxDcEiJ_-65" value="Pagamento realizado" style="rounded=1;whiteSpace=wrap;html=1;" parent="WIyWlLk6GJQsqaUBKTNV-1" vertex="1">
          <mxGeometry x="2443" y="365.87" width="120" height="50" as="geometry" />
        </mxCell>
        <mxCell id="RYv_guV0oGGCcxDcEiJ_-75" style="edgeStyle=orthogonalEdgeStyle;rounded=0;orthogonalLoop=1;jettySize=auto;html=1;exitX=0.5;exitY=1;exitDx=0;exitDy=0;" parent="WIyWlLk6GJQsqaUBKTNV-1" source="RYv_guV0oGGCcxDcEiJ_-69" target="RYv_guV0oGGCcxDcEiJ_-74" edge="1">
          <mxGeometry relative="1" as="geometry" />
        </mxCell>
        <mxCell id="RYv_guV0oGGCcxDcEiJ_-69" value="Pedir dados do cartão" style="rounded=1;whiteSpace=wrap;html=1;" parent="WIyWlLk6GJQsqaUBKTNV-1" vertex="1">
          <mxGeometry x="2290" y="499.49" width="120" height="50" as="geometry" />
        </mxCell>
        <mxCell id="7GlUSVLypJ4G9-vJ-Vu1-20" style="edgeStyle=orthogonalEdgeStyle;rounded=0;orthogonalLoop=1;jettySize=auto;html=1;exitX=1;exitY=0.5;exitDx=0;exitDy=0;entryX=0.5;entryY=1;entryDx=0;entryDy=0;" parent="WIyWlLk6GJQsqaUBKTNV-1" source="RYv_guV0oGGCcxDcEiJ_-74" target="RYv_guV0oGGCcxDcEiJ_-65" edge="1">
          <mxGeometry relative="1" as="geometry" />
        </mxCell>
        <mxCell id="7GlUSVLypJ4G9-vJ-Vu1-21" value="Sim" style="edgeLabel;html=1;align=center;verticalAlign=middle;resizable=0;points=[];" parent="7GlUSVLypJ4G9-vJ-Vu1-20" connectable="0" vertex="1">
          <mxGeometry x="-0.605" relative="1" as="geometry">
            <mxPoint x="-43" y="-1" as="offset" />
          </mxGeometry>
        </mxCell>
        <mxCell id="qe04x3mOyRm4tF5T4k0E-21" style="edgeStyle=orthogonalEdgeStyle;rounded=0;orthogonalLoop=1;jettySize=auto;html=1;entryX=1;entryY=0.5;entryDx=0;entryDy=0;" parent="WIyWlLk6GJQsqaUBKTNV-1" source="RYv_guV0oGGCcxDcEiJ_-74" target="RYv_guV0oGGCcxDcEiJ_-78" edge="1">
          <mxGeometry relative="1" as="geometry" />
        </mxCell>
        <mxCell id="fA4EnLWFK2wPFM1SBRzB-0" value="Não" style="edgeLabel;html=1;align=center;verticalAlign=middle;resizable=0;points=[];" parent="qe04x3mOyRm4tF5T4k0E-21" vertex="1" connectable="0">
          <mxGeometry x="-0.7082" y="2" relative="1" as="geometry">
            <mxPoint x="-6" y="-3" as="offset" />
          </mxGeometry>
        </mxCell>
        <mxCell id="RYv_guV0oGGCcxDcEiJ_-74" value="Os dados estão corretos?" style="rhombus;whiteSpace=wrap;html=1;" parent="WIyWlLk6GJQsqaUBKTNV-1" vertex="1">
          <mxGeometry x="2265" y="592.49" width="170" height="121.25" as="geometry" />
        </mxCell>
        <mxCell id="RYv_guV0oGGCcxDcEiJ_-83" style="edgeStyle=orthogonalEdgeStyle;rounded=0;orthogonalLoop=1;jettySize=auto;html=1;exitX=0.5;exitY=0;exitDx=0;exitDy=0;entryX=0;entryY=0.5;entryDx=0;entryDy=0;" parent="WIyWlLk6GJQsqaUBKTNV-1" source="RYv_guV0oGGCcxDcEiJ_-78" target="RYv_guV0oGGCcxDcEiJ_-69" edge="1">
          <mxGeometry relative="1" as="geometry" />
        </mxCell>
        <mxCell id="RYv_guV0oGGCcxDcEiJ_-78" value="Mostrar erro" style="rounded=1;whiteSpace=wrap;html=1;" parent="WIyWlLk6GJQsqaUBKTNV-1" vertex="1">
          <mxGeometry x="2069" y="628.12" width="120" height="50" as="geometry" />
        </mxCell>
        <mxCell id="RYv_guV0oGGCcxDcEiJ_-86" style="edgeStyle=orthogonalEdgeStyle;rounded=0;orthogonalLoop=1;jettySize=auto;html=1;exitX=1;exitY=0.5;exitDx=0;exitDy=0;entryX=0;entryY=0.5;entryDx=0;entryDy=0;" parent="WIyWlLk6GJQsqaUBKTNV-1" source="RYv_guV0oGGCcxDcEiJ_-84" target="7GlUSVLypJ4G9-vJ-Vu1-7" edge="1">
          <mxGeometry relative="1" as="geometry">
            <mxPoint x="941" y="317" as="targetPoint" />
          </mxGeometry>
        </mxCell>
        <mxCell id="Lc4B7oKeqXN2q5uEeSAr-3" style="edgeStyle=orthogonalEdgeStyle;rounded=0;orthogonalLoop=1;jettySize=auto;html=1;exitX=0.5;exitY=0;exitDx=0;exitDy=0;entryX=0.5;entryY=1;entryDx=0;entryDy=0;" edge="1" parent="WIyWlLk6GJQsqaUBKTNV-1" source="RYv_guV0oGGCcxDcEiJ_-84" target="Lc4B7oKeqXN2q5uEeSAr-1">
          <mxGeometry relative="1" as="geometry" />
        </mxCell>
        <mxCell id="Lc4B7oKeqXN2q5uEeSAr-4" style="edgeStyle=orthogonalEdgeStyle;rounded=0;orthogonalLoop=1;jettySize=auto;html=1;exitX=0.5;exitY=0;exitDx=0;exitDy=0;entryX=0.5;entryY=1;entryDx=0;entryDy=0;" edge="1" parent="WIyWlLk6GJQsqaUBKTNV-1" source="RYv_guV0oGGCcxDcEiJ_-84" target="Lc4B7oKeqXN2q5uEeSAr-2">
          <mxGeometry relative="1" as="geometry" />
        </mxCell>
        <mxCell id="Lc4B7oKeqXN2q5uEeSAr-5" style="edgeStyle=orthogonalEdgeStyle;rounded=0;orthogonalLoop=1;jettySize=auto;html=1;exitX=0.5;exitY=0;exitDx=0;exitDy=0;" edge="1" parent="WIyWlLk6GJQsqaUBKTNV-1" source="RYv_guV0oGGCcxDcEiJ_-84" target="vYOpSd9B1aAu_Q23RFO4-0">
          <mxGeometry relative="1" as="geometry" />
        </mxCell>
        <mxCell id="Lc4B7oKeqXN2q5uEeSAr-6" style="edgeStyle=orthogonalEdgeStyle;rounded=0;orthogonalLoop=1;jettySize=auto;html=1;exitX=0.5;exitY=0;exitDx=0;exitDy=0;" edge="1" parent="WIyWlLk6GJQsqaUBKTNV-1" source="RYv_guV0oGGCcxDcEiJ_-84" target="7GlUSVLypJ4G9-vJ-Vu1-8">
          <mxGeometry relative="1" as="geometry" />
        </mxCell>
        <mxCell id="Lc4B7oKeqXN2q5uEeSAr-7" style="edgeStyle=orthogonalEdgeStyle;rounded=0;orthogonalLoop=1;jettySize=auto;html=1;exitX=0.5;exitY=0;exitDx=0;exitDy=0;entryX=0.5;entryY=0;entryDx=0;entryDy=0;" edge="1" parent="WIyWlLk6GJQsqaUBKTNV-1" source="RYv_guV0oGGCcxDcEiJ_-84" target="7GlUSVLypJ4G9-vJ-Vu1-1">
          <mxGeometry relative="1" as="geometry" />
        </mxCell>
        <mxCell id="RYv_guV0oGGCcxDcEiJ_-84" value="Tela principal" style="rounded=1;whiteSpace=wrap;html=1;" parent="WIyWlLk6GJQsqaUBKTNV-1" vertex="1">
          <mxGeometry x="806" y="299" width="100" height="37.5" as="geometry" />
        </mxCell>
        <mxCell id="Lc4B7oKeqXN2q5uEeSAr-18" style="edgeStyle=orthogonalEdgeStyle;rounded=0;orthogonalLoop=1;jettySize=auto;html=1;exitX=1;exitY=0.5;exitDx=0;exitDy=0;entryX=0;entryY=0.5;entryDx=0;entryDy=0;" edge="1" parent="WIyWlLk6GJQsqaUBKTNV-1" source="7GlUSVLypJ4G9-vJ-Vu1-1" target="Lc4B7oKeqXN2q5uEeSAr-15">
          <mxGeometry relative="1" as="geometry" />
        </mxCell>
        <mxCell id="7GlUSVLypJ4G9-vJ-Vu1-1" value="Acessa o carrinho" style="rounded=1;whiteSpace=wrap;html=1;" parent="WIyWlLk6GJQsqaUBKTNV-1" vertex="1">
          <mxGeometry x="1281" y="292" width="120" height="50" as="geometry" />
        </mxCell>
        <mxCell id="7GlUSVLypJ4G9-vJ-Vu1-7" value="Exibir jogos disponíveis" style="rounded=1;whiteSpace=wrap;html=1;" parent="WIyWlLk6GJQsqaUBKTNV-1" vertex="1">
          <mxGeometry x="961" y="299" width="100" height="37.5" as="geometry" />
        </mxCell>
        <mxCell id="7GlUSVLypJ4G9-vJ-Vu1-8" value="Acessar o histórico de compras" style="rounded=1;whiteSpace=wrap;html=1;" parent="WIyWlLk6GJQsqaUBKTNV-1" vertex="1">
          <mxGeometry x="730" y="169" width="103" height="47.5" as="geometry" />
        </mxCell>
        <mxCell id="7GlUSVLypJ4G9-vJ-Vu1-9" value="Pagamento" style="rounded=1;whiteSpace=wrap;html=1;" parent="WIyWlLk6GJQsqaUBKTNV-1" vertex="1">
          <mxGeometry x="1748" y="292.49" width="120" height="50" as="geometry" />
        </mxCell>
        <mxCell id="7GlUSVLypJ4G9-vJ-Vu1-26" value="&lt;font style=&quot;font-size: 63px;&quot;&gt;CLIENTE&lt;/font&gt;" style="text;html=1;align=center;verticalAlign=middle;whiteSpace=wrap;rounded=0;" parent="WIyWlLk6GJQsqaUBKTNV-1" vertex="1">
          <mxGeometry x="208" y="39" width="290" height="130" as="geometry" />
        </mxCell>
        <mxCell id="7GlUSVLypJ4G9-vJ-Vu1-31" value="Cadastrar novo jogo" style="whiteSpace=wrap;html=1;rounded=1;" parent="WIyWlLk6GJQsqaUBKTNV-1" vertex="1">
          <mxGeometry x="730" y="1092.5" width="120" height="60" as="geometry" />
        </mxCell>
        <mxCell id="qe04x3mOyRm4tF5T4k0E-2" value="Alterar sistema" style="whiteSpace=wrap;html=1;rounded=1;" parent="WIyWlLk6GJQsqaUBKTNV-1" vertex="1">
          <mxGeometry x="490" y="1092.5" width="120" height="60" as="geometry" />
        </mxCell>
        <mxCell id="qe04x3mOyRm4tF5T4k0E-4" value="Lançar jogo no sistema" style="whiteSpace=wrap;html=1;rounded=1;" parent="WIyWlLk6GJQsqaUBKTNV-1" vertex="1">
          <mxGeometry x="490" y="1192.5" width="120" height="60" as="geometry" />
        </mxCell>
        <mxCell id="qe04x3mOyRm4tF5T4k0E-5" value="Controlar acesso com permissões para usuários e desenvolvedores" style="whiteSpace=wrap;html=1;rounded=1;" parent="WIyWlLk6GJQsqaUBKTNV-1" vertex="1">
          <mxGeometry x="730" y="1192.5" width="120" height="60" as="geometry" />
        </mxCell>
        <mxCell id="qe04x3mOyRm4tF5T4k0E-18" value="&lt;span style=&quot;font-size: 63px;&quot;&gt;ADM&lt;/span&gt;" style="text;html=1;align=center;verticalAlign=middle;whiteSpace=wrap;rounded=0;" parent="WIyWlLk6GJQsqaUBKTNV-1" vertex="1">
          <mxGeometry x="208" y="835" width="290" height="130" as="geometry" />
        </mxCell>
        <mxCell id="vYOpSd9B1aAu_Q23RFO4-0" value="Entrar para a equipe de jogos" style="rounded=1;whiteSpace=wrap;html=1;" parent="WIyWlLk6GJQsqaUBKTNV-1" vertex="1">
          <mxGeometry x="850" y="169" width="103" height="47.5" as="geometry" />
        </mxCell>
        <mxCell id="Lc4B7oKeqXN2q5uEeSAr-1" value="Acessar tela de suporte" style="rounded=1;whiteSpace=wrap;html=1;" vertex="1" parent="WIyWlLk6GJQsqaUBKTNV-1">
          <mxGeometry x="970" y="169" width="103" height="47.5" as="geometry" />
        </mxCell>
        <mxCell id="Lc4B7oKeqXN2q5uEeSAr-2" value="Acessar tela de Sobre Nós" style="rounded=1;whiteSpace=wrap;html=1;" vertex="1" parent="WIyWlLk6GJQsqaUBKTNV-1">
          <mxGeometry x="1092" y="169" width="103" height="47.5" as="geometry" />
        </mxCell>
        <mxCell id="Lc4B7oKeqXN2q5uEeSAr-12" value="Avaliar jogo" style="rounded=1;whiteSpace=wrap;html=1;" vertex="1" parent="WIyWlLk6GJQsqaUBKTNV-1">
          <mxGeometry x="1196" y="390" width="120" height="62.75" as="geometry" />
        </mxCell>
        <mxCell id="Lc4B7oKeqXN2q5uEeSAr-20" style="edgeStyle=orthogonalEdgeStyle;rounded=0;orthogonalLoop=1;jettySize=auto;html=1;exitX=0.5;exitY=0;exitDx=0;exitDy=0;entryX=0.5;entryY=0;entryDx=0;entryDy=0;" edge="1" parent="WIyWlLk6GJQsqaUBKTNV-1" source="Lc4B7oKeqXN2q5uEeSAr-15" target="7GlUSVLypJ4G9-vJ-Vu1-9">
          <mxGeometry relative="1" as="geometry" />
        </mxCell>
        <mxCell id="Lc4B7oKeqXN2q5uEeSAr-21" value="Não" style="edgeLabel;html=1;align=center;verticalAlign=middle;resizable=0;points=[];" vertex="1" connectable="0" parent="Lc4B7oKeqXN2q5uEeSAr-20">
          <mxGeometry x="-0.7797" relative="1" as="geometry">
            <mxPoint as="offset" />
          </mxGeometry>
        </mxCell>
        <mxCell id="Lc4B7oKeqXN2q5uEeSAr-23" style="edgeStyle=orthogonalEdgeStyle;rounded=0;orthogonalLoop=1;jettySize=auto;html=1;exitX=0.5;exitY=1;exitDx=0;exitDy=0;entryX=0.5;entryY=0;entryDx=0;entryDy=0;" edge="1" parent="WIyWlLk6GJQsqaUBKTNV-1" source="Lc4B7oKeqXN2q5uEeSAr-15" target="Lc4B7oKeqXN2q5uEeSAr-22">
          <mxGeometry relative="1" as="geometry" />
        </mxCell>
        <mxCell id="Lc4B7oKeqXN2q5uEeSAr-24" value="Sim" style="edgeLabel;html=1;align=center;verticalAlign=middle;resizable=0;points=[];" vertex="1" connectable="0" parent="Lc4B7oKeqXN2q5uEeSAr-23">
          <mxGeometry x="-0.4214" relative="1" as="geometry">
            <mxPoint as="offset" />
          </mxGeometry>
        </mxCell>
        <mxCell id="Lc4B7oKeqXN2q5uEeSAr-15" value="Há um cupom de desconto?" style="rhombus;whiteSpace=wrap;html=1;" vertex="1" parent="WIyWlLk6GJQsqaUBKTNV-1">
          <mxGeometry x="1436" y="252.5" width="185" height="129" as="geometry" />
        </mxCell>
        <mxCell id="Lc4B7oKeqXN2q5uEeSAr-26" style="edgeStyle=orthogonalEdgeStyle;rounded=0;orthogonalLoop=1;jettySize=auto;html=1;exitX=0.5;exitY=1;exitDx=0;exitDy=0;" edge="1" parent="WIyWlLk6GJQsqaUBKTNV-1" source="Lc4B7oKeqXN2q5uEeSAr-22" target="Lc4B7oKeqXN2q5uEeSAr-25">
          <mxGeometry relative="1" as="geometry" />
        </mxCell>
        <mxCell id="Lc4B7oKeqXN2q5uEeSAr-22" value="Inserir o cupom" style="rounded=1;whiteSpace=wrap;html=1;" vertex="1" parent="WIyWlLk6GJQsqaUBKTNV-1">
          <mxGeometry x="1468.5" y="449.49" width="120" height="50" as="geometry" />
        </mxCell>
        <mxCell id="Lc4B7oKeqXN2q5uEeSAr-28" style="edgeStyle=orthogonalEdgeStyle;rounded=0;orthogonalLoop=1;jettySize=auto;html=1;exitX=1;exitY=0.5;exitDx=0;exitDy=0;entryX=0.5;entryY=1;entryDx=0;entryDy=0;" edge="1" parent="WIyWlLk6GJQsqaUBKTNV-1" source="Lc4B7oKeqXN2q5uEeSAr-25" target="Lc4B7oKeqXN2q5uEeSAr-27">
          <mxGeometry relative="1" as="geometry" />
        </mxCell>
        <mxCell id="Lc4B7oKeqXN2q5uEeSAr-30" value="Não" style="edgeLabel;html=1;align=center;verticalAlign=middle;resizable=0;points=[];" vertex="1" connectable="0" parent="Lc4B7oKeqXN2q5uEeSAr-28">
          <mxGeometry x="-0.8086" y="1" relative="1" as="geometry">
            <mxPoint as="offset" />
          </mxGeometry>
        </mxCell>
        <mxCell id="Lc4B7oKeqXN2q5uEeSAr-32" style="edgeStyle=orthogonalEdgeStyle;rounded=0;orthogonalLoop=1;jettySize=auto;html=1;exitX=0.5;exitY=1;exitDx=0;exitDy=0;entryX=0.5;entryY=1;entryDx=0;entryDy=0;" edge="1" parent="WIyWlLk6GJQsqaUBKTNV-1" source="Lc4B7oKeqXN2q5uEeSAr-25" target="Lc4B7oKeqXN2q5uEeSAr-31">
          <mxGeometry relative="1" as="geometry" />
        </mxCell>
        <mxCell id="Lc4B7oKeqXN2q5uEeSAr-33" value="Sim" style="edgeLabel;html=1;align=center;verticalAlign=middle;resizable=0;points=[];" vertex="1" connectable="0" parent="Lc4B7oKeqXN2q5uEeSAr-32">
          <mxGeometry x="-0.844" y="4" relative="1" as="geometry">
            <mxPoint y="1" as="offset" />
          </mxGeometry>
        </mxCell>
        <mxCell id="Lc4B7oKeqXN2q5uEeSAr-25" value="O cupom inserido existe?" style="rhombus;whiteSpace=wrap;html=1;" vertex="1" parent="WIyWlLk6GJQsqaUBKTNV-1">
          <mxGeometry x="1441" y="540" width="175" height="120" as="geometry" />
        </mxCell>
        <mxCell id="Lc4B7oKeqXN2q5uEeSAr-29" style="edgeStyle=orthogonalEdgeStyle;rounded=0;orthogonalLoop=1;jettySize=auto;html=1;exitX=0;exitY=0.5;exitDx=0;exitDy=0;entryX=1;entryY=0.5;entryDx=0;entryDy=0;" edge="1" parent="WIyWlLk6GJQsqaUBKTNV-1" source="Lc4B7oKeqXN2q5uEeSAr-27" target="Lc4B7oKeqXN2q5uEeSAr-22">
          <mxGeometry relative="1" as="geometry" />
        </mxCell>
        <mxCell id="Lc4B7oKeqXN2q5uEeSAr-27" value="Exibir erro" style="rounded=1;whiteSpace=wrap;html=1;" vertex="1" parent="WIyWlLk6GJQsqaUBKTNV-1">
          <mxGeometry x="1654" y="449.49" width="120" height="50" as="geometry" />
        </mxCell>
        <mxCell id="Lc4B7oKeqXN2q5uEeSAr-34" style="edgeStyle=orthogonalEdgeStyle;rounded=0;orthogonalLoop=1;jettySize=auto;html=1;exitX=0.5;exitY=0;exitDx=0;exitDy=0;entryX=0.5;entryY=1;entryDx=0;entryDy=0;" edge="1" parent="WIyWlLk6GJQsqaUBKTNV-1" source="Lc4B7oKeqXN2q5uEeSAr-31" target="7GlUSVLypJ4G9-vJ-Vu1-9">
          <mxGeometry relative="1" as="geometry" />
        </mxCell>
        <mxCell id="Lc4B7oKeqXN2q5uEeSAr-31" value="Aplicar desconto" style="rounded=1;whiteSpace=wrap;html=1;" vertex="1" parent="WIyWlLk6GJQsqaUBKTNV-1">
          <mxGeometry x="1800" y="449.49" width="120" height="50" as="geometry" />
        </mxCell>
      </root>
    </mxGraphModel>
  </diagram>
</mxfile>
